# xmcd
#
# Track frame offsets:
#	150
#	2698
#	16154
#	19920
#	24029
#	28828
#	36281
#	47130
#	56543
#	67075
#	69445
#	76159
#	77560
#	85437
#	87863
#	90371
#	93371
#	104383
#	116068
#	122944
#	129501
#	139373
#	151807
#	162657
#	173617
#	190243
#	203421
#	211509
#	216076
#	230921
#	243762
#	245310
#	251492
#	254893
#	268337
#	275063
#	280554
#	292605
#	298168
#	307050
#	316280
#	323263
#	329518
#	337093
#	352989
#
# Disc length: 4794 seconds
#
# Revision: 1
# Processed by: cddbd v1.5.2PL0 Copyright (c) Steve Scherf et al.
# Submitted via: audiograbber 1.83.01
#
DISCID=8312b82d
DTITLE=Isley Brothers - J. Period - Best Of ...  TRUELEMENT PRESENTS  2006
DYEAR=2006
DGENRE=Rap
TTITLE0=J. Period - Take Flight (Intro)
TTITLE1=J. Period - Come Back (Isley Brothers Tribute)
TTITLE2=Big Daddy Kane - Longevity (Interlude)
TTITLE3=Isley Brothers - For The Love Of You  Pt.1
TTITLE4=Nas - Good Morning (Interlude)
TTITLE5=Papoose - Faithful (Exclusive)
TTITLE6=Masta Ace - The I.N.C. Ride
TTITLE7=Slum Village - Call Me
TTITLE8=Ludacris - I Turned You On
TTITLE9=J.Period - I Don't Want It It's That Easy (Interlude)
TTITLE10=Eazy-E - Eazy Duz It
TTITLE11=Lil' Easy E - Legacy (Interlude)
TTITLE12=Bone Thugs-N-Harmony - Crossroads
TTITLE13=Big Daddy Kane - 3 Generations Of Love
TTITLE14=Isley Brothers - Don't Say Goodnight (J.Period Remix)
TTITLE15=Jay-Dee - Bye (Jay Dilla Tribute)
TTITLE16=B.I.G. - Soldiers March
TTITLE17=Nas - Project Windows
TTITLE18=Isley Brothers - Between The Sheets
TTITLE19=A Tribe Called Quest - Bonita Applebum (Hootie Mix)
TTITLE20=B.I.G. - Big Poppa
TTITLE21=Jav-Z - Cameron - Summer In New York (J. Period Exclusive Remix)
TTITLE22=Keith Murray - The Most Beautifullest Thing In This World
TTITLE23=Da Brat - Funkadafied (J. Period Exclusive Remix)
TTITLE24=B.I.G. - Tupac - Ballad For The Fallen Soldiers
TTITLE25=Black Thought - And Then You're Gone Again
TTITLE26=Isley Brothers - Ain't I Been Good To You  Pt.2
TTITLE27=Isley Brothers - Make Me Say It Again Girl (Interlude)
TTITLE28=50 Cent - LL Cool J - Make Me Say It Again Girl
TTITLE29=Nas - Street Dreams (Strret Dreamer Remix)
TTITLE30=J. Period - Aaliyah Wake Up (Interlude)
TTITLE31=Aaliyah - Isley Brothers - Choosey Lover (Old School)
TTITLE32=Aaliyah - Choosey Lover (New School)
TTITLE33=Mos Def - Beauty In The Dark (Unrealeased)
TTITLE34=Isley Brothers - Footsteps In The Dark Pt.1
TTITLE35=Jay-Z - Who U Know Like You?
TTITLE36=Ice Cube - It Was A Good Day
TTITLE37=Isley Brothers - Blast Off (New Baby Makin Music LP)
TTITLE38=Isley Brothers - Just Came Here To Chill (New Baby Makin Music LP)
TTITLE39=Isley Brothers - Contagious
TTITLE40=Isley Brothers - Busted
TTITLE41=Isley Brothers - Let's Lay Together
TTITLE42=R. Kelly - Down Low (Nobody Has To Know)
TTITLE43=Mobb Deep - There I Go Again (Bonus)
TTITLE44=Public Enemy - Isley Brothers - Fight The Power
EXTD=
EXTT0=
EXTT1=
EXTT2=
EXTT3=
EXTT4=
EXTT5=
EXTT6=
EXTT7=
EXTT8=
EXTT9=
EXTT10=
EXTT11=
EXTT12=
EXTT13=
EXTT14=
EXTT15=
EXTT16=
EXTT17=
EXTT18=
EXTT19=
EXTT20=
EXTT21=
EXTT22=
EXTT23=
EXTT24=
EXTT25=
EXTT26=
EXTT27=
EXTT28=
EXTT29=
EXTT30=
EXTT31=
EXTT32=
EXTT33=
EXTT34=
EXTT35=
EXTT36=
EXTT37=
EXTT38=
EXTT39=
EXTT40=
EXTT41=
EXTT42=
EXTT43=
EXTT44=
PLAYORDER=
